<svg width="32" height="33" viewBox="0 0 32 33" fill="none" xmlns="http://www.w3.org/2000/svg">
<g clip-path="url(#clip0_893_529)">
<path d="M31.5535 7.34419C31.8893 7.66919 32.061 8.03669 31.8676 8.49085C31.681 8.92919 31.3135 9.06419 30.8551 9.06252C29.0351 9.05419 27.2151 9.05919 25.396 9.05919H24.9985V12.3917C25.0826 12.3984 25.1718 12.4109 25.261 12.4109C25.8851 12.4134 26.5093 12.4109 27.1326 12.4125C27.836 12.4142 28.201 12.7834 28.2018 13.495C28.2035 14.7742 28.2026 16.0525 28.2026 17.3317C28.2026 21.9684 28.196 26.605 28.211 31.2425C28.2126 31.8209 28.056 32.25 27.5168 32.5H19.7168C19.7193 31.6475 19.7235 30.795 19.7235 29.9425V13.5992C19.7235 12.7425 20.0543 12.4125 20.9101 12.4117C21.6068 12.4117 22.3035 12.41 23.0001 12.4075C23.0193 12.4075 23.0385 12.3959 23.1001 12.3759V12.0292C23.1001 8.59752 23.0993 5.16669 23.1026 1.73585C23.1026 1.56085 23.111 1.37919 23.1585 1.21252C23.2776 0.790021 23.7126 0.514188 24.1426 0.564188C24.5843 0.615021 24.9301 0.965854 24.9643 1.40919C24.9776 1.59252 24.966 1.77752 24.966 1.99585H25.3385C27.1793 1.99585 29.0201 2.00002 30.8601 1.99335C31.306 1.99169 31.6635 2.12669 31.8568 2.54502C32.0576 2.98002 31.9101 3.34669 31.5993 3.67919C31.0093 4.30835 30.4276 4.94669 29.8226 5.60335C29.8926 5.68085 29.9568 5.75669 30.0268 5.82669C30.5343 6.33419 31.0385 6.84419 31.5535 7.34419Z" fill="#FF782D"/>
<path d="M17.8494 20.6851C17.851 24.6234 17.8477 28.5617 17.8452 32.5001H10.4827C10.4819 28.5717 10.4794 24.6442 10.481 20.7159C10.481 20.1284 10.8627 19.7301 11.4535 19.7267C13.2619 19.7176 15.071 19.7176 16.8794 19.7267C17.4594 19.7301 17.8485 20.1201 17.8494 20.6851Z" fill="#FF782D"/>
<path d="M8.61057 32.5001H0.998073C0.458906 32.2734 0.278073 31.8667 0.286406 31.2892C0.310573 29.5542 0.293906 27.8192 0.295573 26.0834C0.295573 25.3126 0.646406 24.9634 1.42141 24.9634C3.43724 24.9626 5.45391 24.9626 7.46974 24.9634C8.25474 24.9634 8.60641 25.3192 8.60724 26.1092C8.60891 28.2392 8.60974 30.3701 8.61057 32.5001Z" fill="#FF782D"/>
<path d="M17.12 9.02256C16.6392 9.24923 16.115 9.04423 15.8483 8.5209C15.6417 8.11506 15.4417 7.70756 15.2175 7.2584C15.145 7.38256 15.0917 7.46423 15.0458 7.55006C11.9825 13.2392 7.51 17.4134 1.60667 20.0492C0.789167 20.4142 0.465 20.3176 0 19.5867V19.0876C0.161667 18.6967 0.476667 18.4984 0.8525 18.3317C6.325 15.8984 10.475 12.0317 13.3375 6.77756C13.395 6.67173 13.4433 6.56173 13.5267 6.39256C12.9742 6.50256 12.49 6.60673 12.0025 6.6934C11.5833 6.76756 11.1767 6.5434 11.0042 6.16507C10.7608 5.63007 11.0575 5.0009 11.6425 4.8709C12.7375 4.6284 13.835 4.39923 14.935 4.17923C15.4725 4.07173 15.8117 4.2484 16.0567 4.7384C16.5508 5.72173 17.0417 6.70673 17.5258 7.69506C17.7883 8.2309 17.6108 8.7909 17.12 9.02256Z" fill="#FF782D"/>
</g>
<defs>
<clipPath id="clip0_893_529">
<rect width="32" height="32" fill="white" transform="translate(0 0.5)"/>
</clipPath>
</defs>
</svg>
