<svg width="32" height="33" viewBox="0 0 32 33" fill="none" xmlns="http://www.w3.org/2000/svg">
<g clip-path="url(#clip0_893_433)">
<path d="M26.7424 22.9001L26.8757 23.0334C27.1784 23.3387 27.5534 23.5625 27.9657 23.6839C28.3781 23.8054 28.8145 23.8206 29.2344 23.7281C29.6474 23.6414 30.032 23.4522 30.3529 23.178C30.6737 22.9038 30.9204 22.5533 31.0704 22.1588C31.8065 20.2258 32.1584 18.1678 32.1064 16.1001C31.9563 12.0388 30.2858 8.18206 27.4261 5.29439C24.5663 2.40673 20.726 0.698903 16.6664 0.50942C14.5197 0.434778 12.3799 0.79314 10.3747 1.56314C8.36949 2.33315 6.53984 3.49902 4.99484 4.99127C3.44984 6.48351 2.22112 8.27157 1.38194 10.2488C0.542765 12.2261 0.110307 14.3521 0.110352 16.5001C0.115292 20.742 1.80259 24.8088 4.8021 27.8083C7.80161 30.8079 11.8684 32.4951 16.1104 32.5001C16.561 32.5001 17.0037 32.4708 17.4437 32.4334C17.7775 32.4053 18.0886 32.2525 18.3149 32.0054C18.5412 31.7583 18.6662 31.4351 18.665 31.1001L18.6224 26.3161C18.6116 25.3707 18.8828 24.4436 19.4013 23.6531C19.9199 22.8625 20.6623 22.2445 21.5338 21.8779C22.4053 21.5113 23.3662 21.4127 24.2939 21.5948C25.2217 21.7769 26.0741 22.2313 26.7424 22.9001ZM22.8197 11.2334C23.202 11.132 23.6058 11.1462 23.98 11.2742C24.3543 11.4022 24.6821 11.6384 24.9222 11.9527C25.1622 12.2671 25.3037 12.6456 25.3286 13.0403C25.3536 13.4351 25.2609 13.8284 25.0624 14.1705C24.8639 14.5125 24.5683 14.7881 24.2132 14.9622C23.8581 15.1364 23.4593 15.2013 23.0672 15.1488C22.6752 15.0964 22.3075 14.9288 22.0107 14.6674C21.7139 14.4059 21.5012 14.0624 21.3997 13.6801C21.3322 13.4262 21.3155 13.1615 21.3503 12.9011C21.3852 12.6408 21.471 12.3898 21.6028 12.1626C21.7347 11.9354 21.91 11.7364 22.1188 11.577C22.3276 11.4175 22.5658 11.3008 22.8197 11.2334ZM10.513 23.1001C10.1307 23.2015 9.72691 23.1873 9.35267 23.0593C8.97843 22.9313 8.65056 22.6951 8.41051 22.3808C8.17047 22.0664 8.02902 21.6879 8.00406 21.2932C7.97911 20.8984 8.07176 20.5051 8.2703 20.1631C8.46885 19.821 8.76437 19.5454 9.1195 19.3713C9.47464 19.1971 9.87344 19.1322 10.2655 19.1847C10.6575 19.2372 11.0252 19.4047 11.322 19.6661C11.6188 19.9276 11.8315 20.2711 11.933 20.6534C12.0005 20.9073 12.0173 21.172 11.9824 21.4324C11.9475 21.6928 11.8617 21.9437 11.7299 22.1709C11.598 22.3981 11.4227 22.5971 11.2139 22.7565C11.0051 22.916 10.7669 23.0327 10.513 23.1001ZM10.513 15.1001C10.1307 15.2015 9.72691 15.1873 9.35267 15.0593C8.97843 14.9313 8.65056 14.6951 8.41051 14.3808C8.17047 14.0664 8.02902 13.6879 8.00406 13.2932C7.97911 12.8984 8.07176 12.5051 8.2703 12.1631C8.46885 11.821 8.76437 11.5454 9.1195 11.3713C9.47464 11.1971 9.87344 11.1322 10.2655 11.1847C10.6575 11.2372 11.0252 11.4047 11.322 11.6661C11.6188 11.9276 11.8315 12.2711 11.933 12.6534C12.0005 12.9073 12.0173 13.172 11.9824 13.4324C11.9475 13.6928 11.8617 13.9437 11.7299 14.1709C11.598 14.3981 11.4227 14.5971 11.2139 14.7565C11.0051 14.916 10.7669 15.0327 10.513 15.1001ZM17.1797 11.1001C16.7974 11.2015 16.3936 11.1873 16.0193 11.0593C15.6451 10.9313 15.3172 10.6951 15.0772 10.3808C14.8371 10.0664 14.6957 9.68792 14.6707 9.29318C14.6458 8.89843 14.7384 8.50515 14.937 8.16305C15.1355 7.82096 15.431 7.54542 15.7862 7.37127C16.1413 7.19712 16.5401 7.13218 16.9321 7.18467C17.3242 7.23716 17.6918 7.40471 17.9887 7.66614C18.2855 7.92757 18.4981 8.27115 18.5997 8.65342C18.6671 8.90731 18.6839 9.172 18.6491 9.43238C18.6142 9.69275 18.5284 9.94371 18.3965 10.1709C18.2647 10.3981 18.0893 10.5971 17.8805 10.7565C17.6717 10.916 17.4336 11.0327 17.1797 11.1001Z" fill="#FF782D"/>
</g>
<defs>
<clipPath id="clip0_893_433">
<rect width="32" height="32" fill="white" transform="translate(0 0.5)"/>
</clipPath>
</defs>
</svg>
