<svg width="32" height="33" viewBox="0 0 32 33" fill="none" xmlns="http://www.w3.org/2000/svg">
<g clip-path="url(#clip0_893_559)">
<path d="M24.0964 23.585C23.7031 19.0375 19.5414 15.675 14.9922 16.2283C10.6131 16.7617 7.40806 20.6792 7.86223 25.0767C8.22139 28.5458 10.1431 30.8767 13.4139 32.0692C14.0106 32.2875 14.6606 32.36 15.2864 32.5H16.6589C16.8106 32.4742 16.9622 32.445 17.1147 32.4225C21.4439 31.785 24.4739 27.9492 24.0964 23.585ZM17.1481 29.49C17.0722 29.5217 16.9964 29.5525 16.9072 29.5883V30.9817H15.0447V29.6017C13.5289 28.8783 12.7656 27.8325 12.8414 26.5658H14.6472C14.6706 26.645 14.6947 26.7108 14.7089 26.7792C14.8589 27.4858 15.4289 27.905 16.1389 27.8283C16.7706 27.7608 17.2739 27.1833 17.2614 26.5408C17.2472 25.8542 16.7197 25.295 16.0106 25.275C15.0681 25.2483 14.2664 24.9242 13.6331 24.2233C12.1722 22.6075 12.7322 20.0758 14.7464 19.215C14.9764 19.1167 15.0581 19.0067 15.0422 18.7617C15.0197 18.4117 15.0364 18.0583 15.0364 17.6817H16.9081C16.9081 18.07 16.9222 18.4417 16.9031 18.8117C16.8922 19.0225 16.9647 19.1125 17.1589 19.1967C18.3389 19.7075 18.9914 20.6142 19.1197 21.895C19.1256 21.955 19.1197 22.0158 19.1197 22.0967H17.2897C17.2697 22.0192 17.2464 21.9417 17.2297 21.8625C17.0856 21.1883 16.4906 20.7592 15.8072 20.8375C15.1647 20.9108 14.6531 21.5133 14.6847 22.16C14.7189 22.8408 15.2422 23.36 15.9314 23.3958C17.5189 23.4775 18.6839 24.3817 19.0347 25.8042C19.4114 27.3342 18.6206 28.8808 17.1481 29.49Z" fill="#FF782D"/>
<path d="M8.3725 17.4951C8.37083 17.6634 8.29833 17.8609 8.19417 17.9934C7.47917 18.8976 6.90833 19.8793 6.52333 20.9676C6.47333 21.1076 6.43833 21.2251 6.2375 21.2243C4.15833 21.2134 2.07917 21.2126 0 21.2084V19.3368H3.60833V12.9801H8.38083V13.3159C8.38083 14.7093 8.38667 16.1018 8.3725 17.4951Z" fill="#FF782D"/>
<path d="M31.9262 19.3475V21.2025C31.8246 21.2084 31.7246 21.2192 31.6254 21.2192C29.6921 21.22 27.7587 21.215 25.8262 21.2259C25.5904 21.2267 25.4812 21.16 25.4029 20.9342C25.0304 19.8534 24.4571 18.8842 23.7471 17.99C23.6479 17.8642 23.5721 17.6784 23.5721 17.5209C23.5629 11.9717 23.5646 6.42255 23.5646 0.873381V0.569214H28.3279V19.3475H31.9262Z" fill="#FF782D"/>
<path d="M21.6668 4.70422V15.9826C20.9159 15.6259 20.1768 15.2067 19.3901 14.9201C18.6059 14.6342 17.7726 14.4817 16.9268 14.2626V4.70422H21.6668Z" fill="#FF782D"/>
<path d="M15.0127 8.84924V14.2634C14.1811 14.4801 13.3411 14.6359 12.5486 14.9234C11.7677 15.2076 11.0344 15.6251 10.2744 15.9867V8.84924H15.0127Z" fill="#FF782D"/>
</g>
<defs>
<clipPath id="clip0_893_559">
<rect width="32" height="32" fill="white" transform="translate(0 0.5)"/>
</clipPath>
</defs>
</svg>
