<svg width="32" height="33" viewBox="0 0 32 33" fill="none" xmlns="http://www.w3.org/2000/svg">
<path d="M27.9379 6.46589C27.9362 6.22922 27.8987 5.98839 27.8412 5.75839C27.4587 4.21172 26.1812 3.22922 24.5287 3.22172C22.5429 3.21339 20.5579 3.22005 18.5721 3.22005C14.1954 3.22005 9.81957 3.21589 5.44291 3.22172C3.43624 3.22422 1.99291 4.64339 1.99124 6.61505C1.98624 12.5626 1.98791 18.5101 1.99374 24.4576C1.99374 24.7351 2.02374 25.0201 2.08958 25.2892C2.45874 26.8109 3.73124 27.8267 5.33291 27.8326C9.14791 27.8476 12.9629 27.8376 16.7787 27.8376C16.8396 27.8376 16.9012 27.8284 17.0112 27.8201C17.0112 27.7151 17.0171 27.6334 17.0104 27.5534C16.9271 26.5192 17.2279 25.5992 17.7537 24.7117C19.0021 22.6026 20.2054 20.4667 21.4429 18.3509C21.7604 17.8067 22.0746 17.2784 21.9604 16.6126C21.9579 16.5959 21.9746 16.5759 21.9962 16.5234C22.4937 16.6851 22.6296 16.2892 22.8146 15.9617C22.8604 15.8809 22.9071 15.8001 22.9537 15.7184C23.1737 15.3351 23.3937 14.9526 23.6429 14.5201H21.9787V10.5517H25.9362C25.9446 10.7134 25.9512 10.8609 25.9579 10.9901C26.2887 10.8684 26.5896 10.7184 26.9079 10.6517C27.2362 10.5834 27.5804 10.5976 27.9346 10.5742C27.9379 10.5276 27.9437 10.4776 27.9437 10.4276C27.9437 9.10672 27.9471 7.78589 27.9379 6.46589ZM7.95458 25.8209C6.98457 25.8209 6.02041 25.8534 5.06041 25.8084C4.51874 25.7826 4.03708 25.2542 4.00541 24.6934C3.96541 23.9817 3.99541 23.2651 3.99541 22.5234H7.95458V25.8209ZM7.95624 20.5009H4.00374V16.5426H7.95624V20.5009ZM7.96291 14.5059H4.00791V10.5509H7.96291V14.5059ZM7.96291 8.52255H3.98624V7.86089C3.98624 7.41422 3.97874 6.96755 3.98874 6.52089C4.00207 5.88755 4.45791 5.28339 5.05791 5.25089C6.01874 5.19922 6.98374 5.23672 7.96291 5.23672V8.52255ZM18.5162 17.0851C17.1837 17.8492 15.8554 18.6192 14.5246 19.3876C14.1654 19.5951 13.8062 19.8042 13.4462 20.0101C12.3537 20.6342 11.3021 20.0317 11.2979 18.7784C11.2946 17.8017 11.2971 16.8251 11.2971 15.8476C11.2971 14.8817 11.2954 13.9151 11.2979 12.9484C11.3012 11.6892 12.3529 11.0851 13.4429 11.7134C15.1421 12.6934 16.8404 13.6759 18.5404 14.6542C18.9962 14.9167 19.2762 15.2884 19.2871 15.8292C19.2979 16.4101 19.0054 16.8042 18.5162 17.0851ZM25.9479 8.51422H21.9662V5.23922C22.0562 5.23172 22.1446 5.21755 22.2329 5.21755C22.9912 5.21589 23.7496 5.21339 24.5079 5.21755C25.4087 5.22255 25.9437 5.75672 25.9471 6.65089C25.9496 7.26422 25.9479 7.87672 25.9479 8.51422Z" fill="#FF782D"/>
<path d="M25.0829 14.6951C23.047 18.2226 21.022 21.7309 18.9854 25.2592C20.1554 25.9342 21.2912 26.5901 22.4454 27.2559C24.4862 23.7209 26.5112 20.2126 28.5429 16.6917C27.3695 16.0142 26.2395 15.3626 25.0829 14.6951ZM25.2345 19.7301C25.0429 20.0409 24.6604 20.1001 24.3554 19.9159C24.067 19.7409 23.937 19.3826 24.1029 19.0759C24.4379 18.4551 24.7887 17.8417 25.1662 17.2459C25.2637 17.0926 25.4837 17.0159 25.6479 16.9042C26.1754 16.9542 26.5212 17.4551 26.292 17.8976C25.967 18.5234 25.6054 19.1309 25.2345 19.7301Z" fill="#FF782D"/>
<path d="M27.9437 24.4117C27.937 26.385 26.5295 27.8084 24.5595 27.8375C24.2804 27.8409 24.0012 27.8375 23.6445 27.8375C24.0387 27.155 24.3979 26.5267 24.767 25.905C24.802 25.8467 24.8995 25.8167 24.9737 25.79C25.6179 25.5634 25.962 25.1134 25.9395 24.4309C25.9262 24.0184 26.0329 23.6717 26.2437 23.3217C26.8037 22.3909 27.3362 21.4425 27.9212 20.4292C27.932 20.595 27.9437 20.6809 27.9437 20.7667C27.9445 21.9817 27.947 23.1967 27.9437 24.4117Z" fill="#FF782D"/>
<path d="M29.7953 14.5101C29.6228 14.851 29.4178 15.1751 29.2094 15.5385C28.0403 14.8643 26.9036 14.2085 25.7461 13.541C25.9703 13.161 26.1594 12.791 26.3936 12.4535C26.7636 11.921 27.4736 11.7568 28.0578 12.0618C28.4894 12.2868 28.9119 12.531 29.3228 12.7918C29.9153 13.1668 30.1119 13.886 29.7953 14.5101Z" fill="#FF782D"/>
<path d="M21.6958 28.3634C21.4999 28.5067 21.3524 28.6376 21.1849 28.7334C20.5908 29.0734 19.9941 29.4092 19.3908 29.7326C18.9383 29.9759 18.4199 29.7634 18.3916 29.2834C18.3424 28.4351 18.3624 27.5826 18.3574 26.7309C18.3574 26.6617 18.3916 26.5909 18.4224 26.4734C19.5224 27.1084 20.5866 27.7234 21.6958 28.3634Z" fill="#FF782D"/>
</svg>
