<svg width="32" height="33" viewBox="0 0 32 33" fill="none" xmlns="http://www.w3.org/2000/svg">
<path d="M14.5342 2.7257C14.535 3.23486 14.5342 3.74403 14.5342 4.25403C14.5333 4.96653 14.3133 5.24736 13.6292 5.4257C12.0325 5.84153 10.5508 6.50403 9.28083 7.5707C8.73083 8.03236 8.25 8.57653 7.77667 9.13486C8.42167 8.68653 9.10167 8.40653 9.88917 8.4557C10.6867 8.50486 11.3525 8.8282 11.87 9.4357C12.6833 10.3907 12.7633 11.7515 12.0775 12.7974C11.4042 13.8249 10.1058 14.2982 8.93333 13.939C8.21583 13.7199 7.6675 13.2815 7.295 12.6307C6.93 11.9907 6.85083 11.3024 7.0025 10.5799C6.96583 10.5715 6.92917 10.564 6.89333 10.5565C6.715 11.1332 6.5 11.7024 6.36667 12.289C5.96833 14.0474 6.03083 15.7932 6.5725 17.519C6.805 18.2574 6.67583 18.5707 6.005 18.9607C5.55583 19.2215 5.1075 19.4832 4.65417 19.7365C4.04333 20.0782 3.47167 19.8699 3.22417 19.2132C2.23167 16.574 2.115 13.889 2.81333 11.1632C2.83917 11.0649 2.8625 10.9657 2.9 10.8132C2.70917 10.8132 2.54917 10.8107 2.38917 10.814C2.02583 10.8207 1.66 10.8099 1.29917 10.844C0.711667 10.899 0.265 10.7165 0 10.1682V9.66986C0.938333 7.81986 1.8775 5.9707 2.81583 4.12153C2.85333 4.04736 2.8925 3.97403 2.93333 3.90153C3.30833 3.2382 4.07833 3.17403 4.55083 3.77736C4.96083 4.3007 5.35167 4.83903 5.75167 5.36986C5.81333 5.4507 5.87917 5.52736 5.95167 5.61736C6.85 4.66653 7.84083 3.8682 8.95833 3.2282C10.315 2.4507 11.7658 1.93986 13.3075 1.68903C14.0825 1.56236 14.5317 1.94736 14.5342 2.7257Z" fill="#FF782D"/>
<path d="M30.9408 10.8408C30.4217 10.8449 29.9017 10.8216 29.3825 10.8116C29.2817 10.8091 29.1808 10.8108 29.0475 10.8108C29.1458 11.2599 29.2458 11.6708 29.3258 12.0849C29.7875 14.4891 29.585 16.8408 28.745 19.1383C28.4708 19.8883 27.9075 20.0958 27.2175 19.7016C26.785 19.4541 26.355 19.2024 25.9225 18.9541C25.27 18.5783 25.1333 18.2524 25.3583 17.5366C25.9575 15.6299 25.9733 13.7141 25.4483 11.7933C25.335 11.3791 25.1683 10.9791 24.9825 10.5783C25.0967 11.3716 24.9908 12.1116 24.5525 12.7808C24.1083 13.4574 23.4792 13.8716 22.6825 14.0174C21.4592 14.2416 20.2058 13.5883 19.6667 12.4541C19.1225 11.3091 19.4225 9.93492 20.3883 9.11159C21.2442 8.38242 22.7575 8.06159 24.1067 9.16826C24.1283 9.14992 24.1492 9.13159 24.1708 9.11409C23.8783 8.78492 23.6017 8.43992 23.2892 8.13159C21.8983 6.76242 20.21 5.92826 18.3417 5.43242C17.6125 5.23909 17.4042 4.98076 17.4033 4.22576V2.75992C17.405 1.93909 17.8508 1.55409 18.6583 1.69242C21.4042 2.16159 23.7683 3.37159 25.73 5.35576C25.81 5.43659 25.8833 5.52492 25.9833 5.63659C26.3508 5.14909 26.6992 4.68742 27.0475 4.22492C27.16 4.07576 27.2683 3.92326 27.385 3.77742C27.8633 3.17909 28.6508 3.22659 29 3.90326C29.9517 5.74826 30.89 7.59992 31.8167 9.45742C32.1608 10.1474 31.715 10.8341 30.9408 10.8408Z" fill="#FF782D"/>
<path d="M26.0665 23.8249C24.249 26.0074 21.979 27.4799 19.2224 28.1891C19.1624 28.2041 19.1015 28.2199 19.0432 28.2391C19.0249 28.2449 19.0115 28.2641 18.9782 28.2916C19.1699 28.8616 19.364 29.4399 19.5565 30.0174C19.8365 30.8557 19.434 31.4107 18.5424 31.4116C16.8274 31.4132 15.1124 31.4132 13.3974 31.4116C12.4915 31.4107 12.1015 30.8574 12.3907 29.9916C12.5807 29.4232 12.7707 28.8541 12.9624 28.2791C12.4249 28.1049 11.899 27.9524 11.3849 27.7649C9.17488 26.9582 7.34821 25.6124 5.85488 23.8032C5.40154 23.2532 5.50821 22.6424 6.12404 22.2816C6.59071 22.0091 7.05821 21.7399 7.52738 21.4724C8.10404 21.1416 8.48738 21.1966 8.93654 21.6882C10.1999 23.0691 11.7082 24.0624 13.5274 24.5424C14.094 24.6916 14.6799 24.7666 15.2624 24.8441C13.5499 23.9507 12.8915 22.8432 13.2399 21.3949C13.5432 20.1316 14.6932 19.2399 15.999 19.2566C17.2999 19.2724 18.4232 20.1724 18.7032 21.4249C19.0299 22.8841 18.3665 23.9882 16.6149 24.8349C17.544 24.7799 18.389 24.5982 19.209 24.2941C20.6807 23.7482 21.9182 22.8607 22.9765 21.7116C23.459 21.1882 23.8232 21.1341 24.4332 21.4857C24.8832 21.7449 25.334 22.0016 25.7815 22.2641C26.4349 22.6474 26.5465 23.2482 26.0665 23.8249Z" fill="#FF782D"/>
</svg>
