<svg width="32" height="33" viewBox="0 0 32 33" fill="none" xmlns="http://www.w3.org/2000/svg">
<path d="M1.6642 10.8859V11.2142C1.6642 16.2775 1.66336 21.3409 1.66586 26.4042C1.66586 26.6534 1.66753 26.9059 1.7092 27.15C2.0792 29.3525 3.81753 30.8259 6.06503 30.83C10.0667 30.8367 14.0692 30.8317 18.0717 30.8317H18.4084C18.35 30.5975 18.2925 30.4192 18.2642 30.2367C18.0342 28.7692 17.8267 27.2984 17.5784 25.8342C17.4567 25.1209 17.5334 24.4684 17.845 23.8084C19.2909 20.7492 20.7125 17.6775 22.1442 14.6117C23.0984 12.5684 25.18 11.8067 27.2242 12.7575C28.2367 13.2275 29.2425 13.7117 30.2409 14.185V10.8859H1.6642ZM13.2367 26.8367C12.1459 26.8425 11.0559 26.8384 9.96503 26.8384C8.8642 26.8375 7.76336 26.8384 6.66253 26.8375C6.2617 26.8375 5.9592 26.6567 5.77253 26.31C5.5917 25.9742 5.61003 25.6267 5.81503 25.3034C6.01503 24.9884 6.32003 24.8442 6.68586 24.8442C8.8767 24.8409 11.0684 24.8375 13.26 24.845C13.8734 24.8475 14.3 25.2834 14.295 25.8559C14.29 26.43 13.8625 26.8334 13.2367 26.8367ZM16.1759 21.4934C16.0559 21.52 15.9284 21.5184 15.805 21.5184C14.2984 21.52 12.7925 21.5192 11.2867 21.5192C9.76003 21.5192 8.23336 21.5225 6.7067 21.5175C5.9892 21.515 5.50503 20.9 5.69003 20.2434C5.81253 19.8084 6.20253 19.525 6.70253 19.5234C7.93836 19.52 9.17503 19.5225 10.4109 19.5225C12.2492 19.5225 14.0875 19.52 15.9259 19.5242C16.4759 19.525 16.9017 19.8992 16.9592 20.41C17.015 20.9109 16.6784 21.3834 16.1759 21.4934ZM16.9384 15.4067C16.8417 15.8142 16.5825 16.0809 16.1634 16.1659C16.0325 16.1925 15.8959 16.1984 15.7617 16.1984C14.2759 16.2009 12.7909 16.2 11.3059 16.2C9.79003 16.2 8.27336 16.2025 6.75753 16.1984C6.08253 16.1959 5.64086 15.7684 5.66003 15.155C5.67586 14.6509 6.05586 14.2509 6.5592 14.21C6.6417 14.2034 6.72503 14.2034 6.80836 14.2034C9.80919 14.2034 12.8109 14.1975 15.8125 14.2134C16.0742 14.2142 16.3717 14.3009 16.59 14.4434C16.9167 14.6567 17.03 15.0184 16.9384 15.4067Z" fill="#FF782D"/>
<path d="M30.2611 6.56587C30.2428 6.14337 30.1995 5.71087 30.082 5.30754C29.5328 3.41421 27.8728 2.22421 25.8145 2.22337C19.2545 2.22171 12.6945 2.22254 6.13362 2.22337C6.00945 2.22337 5.88446 2.22421 5.75946 2.22921C3.79446 2.30504 2.03362 3.79754 1.75612 5.74671C1.62029 6.69587 1.68779 7.67504 1.66612 8.64004C1.66446 8.70837 1.68279 8.77754 1.69279 8.85587H30.2545C30.2595 8.75837 30.2678 8.66004 30.2686 8.56171C30.2695 7.89587 30.2895 7.23004 30.2611 6.56587ZM7.30862 6.86921C6.76445 6.86671 6.31612 6.42004 6.31445 5.87921C6.31362 5.32921 6.79029 4.86171 7.33612 4.87754C7.88112 4.89254 8.31195 5.34171 8.30612 5.89087C8.30029 6.44254 7.86362 6.87171 7.30862 6.86921ZM10.6528 6.86921C10.0986 6.87337 9.65945 6.44504 9.65279 5.89421C9.64529 5.33171 10.0945 4.87254 10.6486 4.87671C11.1828 4.88087 11.642 5.34171 11.6436 5.87587C11.6453 6.41671 11.1986 6.86504 10.6528 6.86921ZM13.9803 6.86837C13.432 6.87254 12.9811 6.43754 12.9728 5.89504C12.9645 5.33921 13.422 4.87421 13.9745 4.87754C14.5128 4.88087 14.9661 5.33587 14.9678 5.87421C14.9695 6.41837 14.5261 6.86421 13.9803 6.86837Z" fill="#FF782D"/>
<path d="M28.5072 21.4308C28.3205 21.8308 28.143 22.2142 27.9647 22.5967C27.1888 24.2617 26.4097 25.9258 25.6397 27.5933C25.4997 27.8983 25.2997 28.1258 25.0113 28.2992C23.7388 29.0642 22.473 29.8408 21.203 30.61C20.4072 31.0925 19.678 30.7517 19.5355 29.8308C19.3038 28.3325 19.0705 26.8342 18.8563 25.3333C18.8255 25.1183 18.8455 24.8625 18.9347 24.6675C19.8905 22.5825 20.8655 20.5067 21.8355 18.4283C21.8438 18.4108 21.8613 18.3967 21.9013 18.3508C24.1013 19.3767 26.2905 20.3975 28.5072 21.4308Z" fill="#FF782D"/>
<path d="M30.1607 17.8092C29.949 18.4225 29.6398 19.0025 29.3623 19.6259C27.1365 18.5884 24.9432 17.565 22.7148 16.5259C22.989 15.9484 23.2215 15.4042 23.4998 14.8834C24.0498 13.8559 25.279 13.3934 26.3557 13.8409C27.284 14.2267 28.1973 14.6525 29.0898 15.1134C30.0473 15.6084 30.514 16.785 30.1607 17.8092Z" fill="#FF782D"/>
<path d="M30.2671 26.4633C30.2546 28.6867 28.7821 30.4433 26.5846 30.7742C25.8313 30.8875 25.0505 30.8192 24.2813 30.8308C24.033 30.835 23.7846 30.8317 23.5355 30.8317C23.5288 30.8092 23.5213 30.7867 23.5146 30.7642C24.2213 30.3342 24.9196 29.89 25.6363 29.4775C26.2096 29.1483 26.6046 28.69 26.8805 28.0908C27.9338 25.7992 29.0063 23.5158 30.0721 21.23C30.1138 21.1392 30.1621 21.0508 30.2438 20.8892C30.2563 21.0408 30.268 21.1167 30.268 21.1917C30.2696 22.9492 30.2771 24.7058 30.2671 26.4633Z" fill="#FF782D"/>
</svg>
